<svg width="222" height="222" viewBox="0 0 222 222" fill="none" xmlns="http://www.w3.org/2000/svg">
<circle cx="111" cy="111" r="92.225" stroke="#0100A3" stroke-width="4.25"></circle>
<circle cx="111" cy="111.001" r="81.175" fill="white" stroke="#0100A3" stroke-width="2.55" stroke-dasharray="6.8 6.8"></circle>
<circle cx="115" cy="101" r="26" fill="#93E658"></circle>
<path d="M85.5517 153.529C85.3449 153.53 85.14 153.489 84.9491 153.41C84.7581 153.33 84.585 153.214 84.4395 153.067L69.939 138.566C69.6434 138.271 69.4772 137.87 69.4772 137.452C69.4772 137.033 69.6434 136.632 69.939 136.337C70.2347 136.041 70.6357 135.875 71.0539 135.875C71.472 135.875 71.873 136.041 72.1686 136.337L86.6691 150.832C86.901 151.049 87.0611 151.331 87.1283 151.641C87.1955 151.951 87.1664 152.275 87.0449 152.568C86.9235 152.861 86.7155 153.11 86.4486 153.282C86.1818 153.454 85.8688 153.54 85.5517 153.529Z" fill="#0100A3"></path>
<path d="M81.6224 155C81.4147 155.001 81.2089 154.961 81.017 154.881C80.8251 154.802 80.651 154.685 80.505 154.537L68.4628 142.5C68.1665 142.204 68 141.802 68 141.383C68 140.964 68.1665 140.562 68.4628 140.266C68.7592 139.969 69.1611 139.803 69.5803 139.803C69.9994 139.803 70.4013 139.969 70.6977 140.266L82.7346 152.308C82.8831 152.453 83.0011 152.626 83.0817 152.818C83.1622 153.009 83.2037 153.215 83.2037 153.423C83.2037 153.63 83.1622 153.836 83.0817 154.027C83.0011 154.219 82.8831 154.392 82.7346 154.537C82.5892 154.684 82.4159 154.801 82.225 154.88C82.034 154.96 81.8292 155 81.6224 155Z" fill="#0100A3"></path>
<path d="M95.7849 145.572C95.5773 145.573 95.3715 145.533 95.1796 145.454C94.9877 145.374 94.8136 145.257 94.6675 145.11L78.0881 128.536C77.8363 128.283 77.6772 127.952 77.6367 127.597C77.5961 127.243 77.6765 126.885 77.8647 126.581L83.1971 118.053C85.3559 114.541 86.4499 110.479 86.3466 106.359C86.2652 101.238 87.4532 96.1769 89.8046 91.6272C92.1559 87.0776 95.5974 83.1811 99.8217 80.2857C104.046 77.3902 108.922 75.586 114.013 75.0341C119.105 74.4822 124.253 75.1998 129 77.1229C133.747 79.0459 137.943 82.1145 141.215 86.0547C144.486 89.9948 146.731 94.6839 147.749 99.7031C148.766 104.722 148.525 109.915 147.047 114.819C145.568 119.722 142.899 124.183 139.276 127.803C136.314 130.786 132.772 133.13 128.868 134.689C124.964 136.248 120.781 136.99 116.579 136.867C112.509 136.787 108.504 137.903 105.062 140.079L96.6217 145.354C96.3684 145.503 96.0787 145.578 95.7849 145.572ZM81.2325 127.189L96.0396 141.991L103.415 137.381C107.379 134.871 111.997 133.587 116.688 133.691C122.307 133.826 127.835 132.257 132.545 129.191C137.255 126.126 140.928 121.707 143.08 116.515C145.232 111.323 145.763 105.602 144.602 100.103C143.442 94.6036 140.645 89.5844 136.578 85.7047C131.247 80.6504 124.138 77.9007 116.793 78.0515C109.448 78.2023 102.459 81.2414 97.3389 86.5103C94.7933 89.1337 92.7935 92.2361 91.4553 95.6378C90.1171 99.0395 89.4671 102.673 89.543 106.328C89.6537 111.058 88.39 115.72 85.9049 119.747L81.2325 127.189Z" fill="#0100A3"></path>
<path d="M91.9441 148.591C91.7365 148.592 91.5307 148.552 91.3388 148.472C91.1469 148.393 90.9728 148.276 90.8267 148.128L74.606 131.959C74.4592 131.813 74.3428 131.638 74.2634 131.447C74.184 131.255 74.1431 131.049 74.1431 130.842C74.1431 130.634 74.184 130.429 74.2634 130.237C74.3428 130.045 74.4592 129.871 74.606 129.725C74.7527 129.578 74.9269 129.461 75.1187 129.382C75.3104 129.303 75.5159 129.262 75.7234 129.262C75.9309 129.262 76.1364 129.303 76.3282 129.382C76.5199 129.461 76.6941 129.578 76.8408 129.725L93.0564 145.945C93.2859 146.162 93.4442 146.443 93.5104 146.752C93.5765 147.061 93.5474 147.382 93.4269 147.674C93.3063 147.966 93.1 148.214 92.8353 148.386C92.5705 148.558 92.2598 148.646 91.9441 148.638V148.591Z" fill="#0100A3"></path>
<path d="M88.9922 151.559C88.7854 151.559 88.5807 151.519 88.3897 151.439C88.1988 151.36 88.0255 151.243 87.8801 151.096L71.6593 134.881C71.3636 134.585 71.1975 134.184 71.1975 133.766C71.1975 133.348 71.3636 132.947 71.6593 132.651C71.955 132.356 72.356 132.189 72.7741 132.189C73.1923 132.189 73.5933 132.356 73.8889 132.651L90.1097 148.867C90.3396 149.084 90.4981 149.366 90.5641 149.675C90.6301 149.984 90.6006 150.306 90.4794 150.598C90.3581 150.89 90.151 151.139 89.8854 151.31C89.6198 151.482 89.3083 151.568 88.9922 151.559Z" fill="#0100A3"></path>
<path d="M85.6452 135.209C85.3296 135.218 85.0189 135.13 84.7541 134.958C84.4893 134.786 84.283 134.538 84.1625 134.246C84.0419 133.954 84.0128 133.633 84.079 133.324C84.1452 133.015 84.3035 132.734 84.533 132.517L106.336 110.689L103.55 107.903C102.557 106.911 101.881 105.647 101.607 104.27C101.334 102.894 101.474 101.468 102.011 100.171C102.548 98.8746 103.457 97.7665 104.624 96.9868C105.79 96.2072 107.162 95.791 108.565 95.791C109.969 95.791 111.34 96.2072 112.507 96.9868C113.674 97.7665 114.583 98.8746 115.12 100.171C115.657 101.468 115.797 102.894 115.523 104.27C115.249 105.647 114.573 106.911 113.581 107.903L86.7627 134.721C86.6188 134.873 86.4457 134.995 86.2537 135.079C86.0617 135.163 85.8548 135.207 85.6452 135.209ZM108.565 98.979C107.787 98.98 107.027 99.2114 106.38 99.6441C105.733 100.077 105.229 100.691 104.931 101.41C104.633 102.129 104.555 102.92 104.706 103.683C104.857 104.446 105.23 105.148 105.78 105.699L108.565 108.48L111.351 105.699C111.9 105.148 112.274 104.446 112.425 103.683C112.576 102.92 112.497 102.129 112.2 101.41C111.902 100.691 111.397 100.077 110.751 99.6441C110.104 99.2114 109.343 98.98 108.565 98.979Z" fill="#0100A3"></path>
<path d="M89.1274 138.676C88.8106 138.686 88.4985 138.599 88.2326 138.427C87.9666 138.254 87.7593 138.005 87.6385 137.712C87.5177 137.419 87.4891 137.096 87.5564 136.787C87.6237 136.477 87.7837 136.195 88.0152 135.979L109.844 114.15L106.97 111.281C106.823 111.135 106.707 110.96 106.628 110.769C106.549 110.577 106.508 110.372 106.509 110.165C106.509 109.957 106.55 109.752 106.63 109.561C106.709 109.369 106.826 109.196 106.972 109.049C107.119 108.903 107.293 108.787 107.485 108.708C107.676 108.628 107.882 108.588 108.089 108.588C108.296 108.588 108.501 108.629 108.693 108.709C108.884 108.789 109.058 108.905 109.205 109.052L112.073 111.921L114.854 109.14C115.846 108.147 117.11 107.47 118.486 107.196C119.863 106.921 121.29 107.061 122.587 107.598C123.883 108.134 124.992 109.044 125.772 110.21C126.552 111.377 126.968 112.749 126.968 114.153C126.968 115.556 126.552 116.928 125.772 118.095C124.992 119.262 123.883 120.171 122.587 120.708C121.29 121.245 119.863 121.385 118.486 121.11C117.11 120.836 115.846 120.159 114.854 119.166L112.073 116.385L90.2448 138.188C90.1009 138.34 89.9278 138.462 89.7358 138.546C89.5439 138.63 89.3369 138.674 89.1274 138.676ZM114.277 114.176L117.063 116.962C117.613 117.514 118.315 117.89 119.08 118.042C119.844 118.195 120.637 118.117 121.357 117.819C122.077 117.521 122.693 117.016 123.126 116.368C123.559 115.72 123.791 114.958 123.791 114.179C123.791 113.399 123.559 112.637 123.126 111.989C122.693 111.341 122.077 110.837 121.357 110.539C120.637 110.241 119.844 110.163 119.08 110.316C118.315 110.468 117.613 110.844 117.063 111.396L114.277 114.176Z" fill="#0100A3"></path>
<path d="M143.054 81.2825C142.738 81.2921 142.427 81.2053 142.161 81.0337C141.896 80.8621 141.689 80.6138 141.567 80.3218C141.446 80.0297 141.417 79.7077 141.483 79.3985C141.549 79.0892 141.707 78.8074 141.937 78.5903L151.292 69.2352C151.588 68.9395 151.989 68.7734 152.407 68.7734C152.825 68.7734 153.226 68.9395 153.522 69.2352C153.818 69.5309 153.984 69.9319 153.984 70.35C153.984 70.7682 153.818 71.1692 153.522 71.4648L144.167 80.8199C144.021 80.967 143.848 81.0836 143.657 81.163C143.466 81.2424 143.261 81.283 143.054 81.2825Z" fill="#0100A3"></path>
<path d="M109.755 69.3636C109.342 69.3636 108.945 69.1994 108.653 68.907C108.361 68.6146 108.196 68.218 108.196 67.8045V54.5774C108.196 54.159 108.362 53.7578 108.658 53.462C108.954 53.1662 109.355 53 109.774 53C110.192 53 110.593 53.1662 110.889 53.462C111.185 53.7578 111.351 54.159 111.351 54.5774V67.7837C111.354 67.9933 111.314 68.2013 111.235 68.3953C111.156 68.5893 111.038 68.7653 110.889 68.9128C110.74 69.0603 110.563 69.1762 110.368 69.2537C110.173 69.3312 109.965 69.3686 109.755 69.3636Z" fill="#0100A3"></path>
<path d="M168.423 114.809H155.216C154.798 114.809 154.397 114.643 154.101 114.347C153.805 114.051 153.639 113.65 153.639 113.232C153.639 112.813 153.805 112.412 154.101 112.116C154.397 111.82 154.798 111.654 155.216 111.654H168.423C168.841 111.654 169.242 111.82 169.538 112.116C169.834 112.412 170 112.813 170 113.232C170 113.65 169.834 114.051 169.538 114.347C169.242 114.643 168.841 114.809 168.423 114.809Z" fill="#0100A3"></path>
<path d="M144.037 151.558C143.829 151.559 143.623 151.519 143.431 151.439C143.239 151.36 143.065 151.243 142.919 151.095L133.564 141.74C133.269 141.445 133.102 141.044 133.102 140.625C133.102 140.207 133.269 139.806 133.564 139.511C133.86 139.215 134.261 139.049 134.679 139.049C135.097 139.049 135.498 139.215 135.794 139.511L145.149 148.866C145.297 149.011 145.416 149.184 145.496 149.376C145.577 149.567 145.618 149.773 145.618 149.981C145.618 150.188 145.577 150.394 145.496 150.585C145.416 150.777 145.297 150.95 145.149 151.095C145.004 151.242 144.83 151.359 144.639 151.438C144.448 151.518 144.244 151.558 144.037 151.558Z" fill="#0100A3"></path>
<path d="M82.6047 90.1269C82.3973 90.1288 82.1917 90.0893 81.9998 90.0108C81.808 89.9323 81.6337 89.8163 81.4872 89.6696L72.1321 80.3144C71.8364 80.0188 71.6703 79.6178 71.6703 79.1996C71.6703 78.7815 71.8364 78.3805 72.1321 78.0848C72.4278 77.7892 72.8288 77.623 73.2469 77.623C73.6651 77.623 74.0661 77.7892 74.3618 78.0848L83.7169 87.4399C83.9468 87.657 84.1052 87.9388 84.1713 88.2481C84.2373 88.5573 84.2078 88.8793 84.0866 89.1713C83.9653 89.4634 83.7582 89.7117 83.4926 89.8833C83.227 90.0549 82.9155 90.1417 82.5994 90.1321L82.6047 90.1269Z" fill="#0100A3"></path>
</svg>